<svg id="Слой_1" xmlns="http://www.w3.org/2000/svg" width="22" height="22" viewBox="0 0 22 22"><path d="M21.6 17.7l-5.5-2.9c-.8-.4-1.7-.4-2.3.1l-1.2.9h-.2c-1.1 0-1.7-.7-2.6-1.8-.3-.4-.7-.8-1.1-1.2l-1.1-1.1C6.4 10.6 5.7 9.9 6 8.9c.2-.2.8-.6 1.3-.9.6-.5.8-1.2.5-2L5.5.5C5.2.2 4.8 0 4.3 0c-.3 0-.7.1-1 .3C2.8.6.3 2.2.2 3c-.8 3.3 1.3 8.4 5.1 12.4C9 19.3 14 22 17.7 22h.3c.9 0 3-1.9 3.5-2.3.6-.5.7-1.4.1-2z" fill="#2b2b2b" /><path d="M18.3 9.2h-5.5c-.1 0-.2-.1-.2-.2V4.1c.1-.1.3-.2.4-.1l5.5 4.9c.1.1 0 .3-.2.3z" fill="#2b2b2b" /><path d="M16.2 7.5l-1.6-1.4c-.1-.1-.1-.3 0-.4l3.1-2.8c.1-.1.3-.1.4 0l1.6 1.4c.1.1.1.3 0 .4l-3.1 2.8c-.1.1-.3.1-.4 0z" fill="#2b2b2b"/></svg>