<svg id="Capa_1" xmlns="http://www.w3.org/2000/svg" width="22" height="22" viewBox="0 0 22 22"><path d="M16 1C12.7.3 9.3.3 6 1c-1.4.3-3.2 2.2-3.6 3.7-.6 2.9-.6 5.8 0 8.6.4 1.5 2.2 3.3 3.6 3.7.1 0 .1.1.1.1v4.2c0 .2.2.3.4.2l1.9-2s1.5-1.6 1.8-1.9h.1c1.9.1 3.8-.1 5.7-.5 1.4-.3 3.2-2.2 3.6-3.7.6-2.9.6-5.8 0-8.6-.4-1.6-2.2-3.5-3.6-3.8z" fill="#7c41c0" stroke="#fff" stroke-miterlimit="10"/><path d="M16 13.5c-.3.6-.7 1.2-1.3 1.5-.2.1-.4.1-.6.2-.2-.1-.4-.1-.6-.2-2-.9-3.9-2-5.4-3.8-.8-1-1.5-2.1-2.1-3.3l-.6-1.8c-.2-.5.1-1.1.4-1.5.3-.3.7-.6 1.1-.9.3-.1.6 0 .9.3.5.6 1 1.3 1.4 2 .2.5.2 1-.3 1.3l-.3.3c-.1 0-.2.1-.2.2-.1.2-.1.4-.1.6.5 1.5 1.4 2.7 2.9 3.4.2.1.5.2.7.2.5-.1.6-.6.9-.9.3-.3.7-.3 1 0 .3.2.7.5 1 .7.3.2.6.5.9.7.4.3.5.6.3 1zm-2.6-5c-.1 0-.1 0 0 0-.2 0-.3-.1-.4-.3v-.5c-.1-.3-.2-.6-.4-.7-.1-.1-.2-.1-.4-.2-.2 0-.3 0-.5-.1-.2 0-.3-.2-.2-.4 0-.2.2-.3.3-.3 1 .1 1.8.6 1.9 1.9v.3c-.1.2-.2.3-.3.3z" fill="#fff" /><path d="M12.7 5.5c-.3-.2-.7-.3-1-.3-.2 0-.3 0-.5-.1-.1 0-.2-.1-.2-.3 0-.2.1-.3.3-.3.6 0 1.2.2 1.7.5 1.1.6 1.7 1.6 1.9 2.9v.9c-.1.3-.5.3-.6 0v-.3c0-.6-.1-1.2-.4-1.7-.2-.5-.6-1-1.2-1.3z" fill="#fff" /><path d="M16.1 9.6c-.2 0-.3-.2-.3-.4 0-.4 0-.8-.1-1.2-.3-2.1-1.9-3.8-3.8-4.2-.3-.1-.6-.1-.9-.1-.2 0-.4 0-.5-.3 0-.2.1-.4.3-.4h.2c2.5.1.2 0 0 0 2.6.1 4.8 1.9 5.3 4.7.1.5.1 1 .1 1.4.1.3 0 .5-.3.5z" fill="#fff" /></svg>