<svg id="Слой_1" xmlns="http://www.w3.org/2000/svg" width="22" height="22" viewBox="0 0 22 22"><path d="M18.4 3.2C16.5 1.1 13.8 0 11 0 5.3 0 .6 4.9.6 10.9c0 1.9.5 3.8 1.4 5.4L.5 22 6 20.5c1.5.9 3.2 1.3 5 1.3 5.8 0 10.5-4.9 10.5-10.9 0-2.9-1.1-5.6-3.1-7.7z" fill="#fff" /><path d="M11 20c-1.6 0-3.1-.4-4.4-1.3l-.3-.2-3.3.9.9-3.3-.2-.3c-.9-1.4-1.3-3.1-1.3-4.8 0-5 3.9-9.1 8.7-9.1 2.3 0 4.5.9 6.1 2.7s2.5 4 2.5 6.4c0 4.9-3.9 9-8.7 9z" fill="#2bb826"/><path d="M15.8 13.2c-.3-.1-1.5-.8-1.8-.9-.2-.1-.4-.1-.6.1-.2.3-.7.9-.8 1.1-.2.2-.3.2-.6.1s-1.1-.4-2.1-1.4c-.8-.7-1.3-1.6-1.5-1.9-.2-.3 0-.4.1-.6.1-.1.3-.3.4-.5.2-.1.3-.2.4-.4s0-.3 0-.5c-.1-.1-.6-1.5-.8-2-.3-.5-.5-.4-.7-.4h-.5c-.2 0-.4 0-.7.3-.2.3-.9.9-.9 2.3s.9 2.6 1.1 2.8c.1.2 1.8 2.9 4.5 4.1.6.3 1.1.4 1.5.6.6.2 1.2.2 1.6.1.5-.1 1.5-.7 1.8-1.3.2-.6.2-1.2.2-1.3-.2-.1-.3-.2-.6-.3z" fill="#fff" /></svg>