<svg version="1.1" id="Layer_1" xmlns="http://www.w3.org/2000/svg" x="0" y="0" width="56" height="49" viewBox="0 0 56 48.9" xml:space="preserve"><style>.st0{fill:#fff}</style><path id="amd_22_" class="st0" d="M17.6 20.4L9.5 0H8L0 20.4h4l1.4-4.1h6.9l1.5 4.1h3.8zm-6.4-6.8H6.4l2.4-7.4 2.4 7.4zM35.4.3h-1.9l-4.2 13.6L25 .3h-1.9l-4 20.2h3.4l2.2-10.9 4 11.1H30l4-11.1 2.1 10.9h3.4L35.4.3zM56 9.6c0-2.8-.9-5.1-2.6-6.9S49.4.1 46.5.1c-.7 0-2.5.1-5.3.2v20.2h4.4C52.5 20.4 56 16.8 56 9.6zm-9.7-6.3c4 0 6 2.2 6 6.5 0 2.4-.5 4.2-1.5 5.5-1 1.3-2.4 2-4.2 2-.7 0-1.3 0-1.9-.1V3.4c.7 0 1.2-.1 1.6-.1z"/><path id="studio_18_" class="st0" d="M2 49c.7 0 1.2-.2 1.6-.5s.6-.8.6-1.3c0-.3 0-.5-.1-.8-.1-.2-.3-.4-.5-.6-.2-.2-.5-.4-.9-.6-.8-.4-1.2-.8-1.2-1.1 0-.2.1-.4.2-.5.1-.1.3-.2.6-.2.4 0 .9.1 1.3.4l.3-1c-.3-.3-.9-.4-1.6-.4-.6 0-1 .2-1.4.5-.4.3-.5.7-.5 1.2 0 .2 0 .5.1.7.1.2.2.4.4.6.2.2.5.4 1 .6.5.2.8.5 1 .7.2.2.2.4.2.6 0 .5-.3.7-1 .7-.4 0-.9-.2-1.3-.5l-.4 1c.4.3 1 .5 1.6.5zm12.9-5.5v-1H9.6v1h2v5.4h1.1v-5.4h2.2zm5.7 3.4c0 .7.2 1.2.6 1.6.4.4 1 .5 1.7.5s1.3-.2 1.8-.6c.4-.4.7-.9.7-1.5v-4.4h-1.1v4.3c0 .4-.1.7-.3.9-.2.2-.5.3-1 .3-.4 0-.7-.1-.9-.3-.2-.2-.3-.5-.3-.8v-4.3h-1.1l-.1 4.3zm15.7-1.5c0-.9-.3-1.6-.8-2.2-.5-.5-1.3-.8-2.2-.8h-1.7v6.4H33c2.2.1 3.3-1.1 3.3-3.4zm-3.1-1.9c1.3 0 1.9.7 1.9 2.1 0 .7-.2 1.3-.5 1.7-.3.4-.8.6-1.3.6h-.6v-4.4h.5zm10.2 5.4v-6.4h-1.1v6.4h1.1zm6.7-.8c.5.6 1.1.9 2 .9.9 0 1.6-.3 2.1-.9.5-.6.8-1.4.8-2.5 0-1-.2-1.8-.7-2.4-.5-.6-1.2-.9-2.1-.9-.8 0-1.5.3-2 .9-.5.6-.7 1.4-.7 2.3-.1 1.2.1 2 .6 2.6zM51 44c.3-.4.7-.6 1.2-.6 1.1 0 1.6.7 1.6 2.2 0 .8-.1 1.3-.4 1.8-.4.4-.8.6-1.4.6-.5 0-.8-.2-1.1-.6-.3-.4-.4-1-.4-1.7.1-.7.2-1.3.5-1.7z"/><path id="plus_22_" d="M3.1 32.8c2.7 0 4.1-1.2 4.1-3.5 0-1-.4-1.8-1.1-2.3-.7-.5-1.9-.7-3.5-.7-.2 0-.9 0-2.1.1v10.1h1.8v-3.7h.8zm-.3-4.9c1.7 0 2.5.5 2.5 1.6 0 .6-.2 1.1-.6 1.3-.4.3-1 .4-1.8.4h-.7V28c.2-.1.4-.1.6-.1zm20 8.6v-1.6h-4.5v-8.5h-1.8v10.1h6.3zm9.3-3.2c0 1.1.3 1.9.9 2.5.6.6 1.5.9 2.7.9 1.2 0 2.1-.3 2.8-.9.7-.6 1-1.4 1-2.4v-6.9h-1.8v6.8c0 .6-.2 1-.5 1.4-.4.3-.9.5-1.5.5s-1-.2-1.4-.5c-.3-.3-.5-.8-.5-1.3v-6.8H32l.1 6.7zm19.4 3.3c1.1 0 1.9-.3 2.6-.8.6-.5 1-1.2 1-2 0-.5-.1-.9-.2-1.2-.2-.4-.4-.7-.7-1-.3-.3-.8-.6-1.4-.9-1.3-.6-1.9-1.2-1.9-1.8 0-.3.1-.6.3-.9.2-.2.5-.3 1-.3.7 0 1.4.2 2 .7l.5-1.5c-.5-.4-1.4-.7-2.6-.7-.9 0-1.6.3-2.2.8-.6.5-.9 1.2-.9 1.9 0 .4.1.8.2 1.1.1.3.3.6.6.9.3.3.8.6 1.6 1s1.3.7 1.5 1.1c.2.3.4.6.4 1 0 .7-.5 1.1-1.6 1.1-.7 0-1.4-.2-2.1-.7l-.6 1.5c.7.5 1.6.7 2.5.7z" fill="#eccd4e"/></svg>