<svg xmlns="http://www.w3.org/2000/svg" width="300" height="43" viewBox="0 0 300 43"><path d="M36.1 42.4L19.6 0h-3.2L0 42.4h8.1l2.9-8.5h14.1l3 8.5h8zM22.9 28.3H13l5-15.5 4.9 15.5zM72.7.6h-3.8l-8.7 28.2L51.3.6h-3.9l-8.3 41.9h7l4.4-22.6L58.9 43h2.6l8.3-23.1L74 42.5h7.1L72.7.6zm42.2 19.3c0-5.9-1.8-10.6-5.3-14.2-3.5-3.6-8.3-5.4-14.2-5.4-1.5 0-5.2.1-11 .3v41.8h9.1c14.3 0 21.4-7.5 21.4-22.5zM95 6.9c8.2 0 12.3 4.5 12.3 13.4 0 4.9-1 8.7-3.1 11.4-2.1 2.7-5 4.1-8.7 4.1-1.4 0-2.6-.1-3.8-.2V7.1c1.4-.1 2.6-.2 3.3-.2z" fill="#272727"/><path d="M160.6 3.4c-3-2-7.7-3-14.1-3-.8 0-3.6.1-8.4.3v41.4h7.2V26.9c1.4.1 2.5.2 3.3.2 11 0 16.5-4.8 16.5-14.3 0-4.2-1.5-7.4-4.5-9.4zm-5.2 15.5c-1.5 1.1-3.9 1.7-7.2 1.7-1 0-1.9-.1-2.9-.2V7.1c.7-.1 1.5-.1 2.2-.1 6.8 0 10.2 2.2 10.2 6.5 0 2.4-.8 4.3-2.3 5.4zm54.4 23.3v-6.6h-18.4V.7h-7.3v41.5h25.7zm17.4-13c0 4.4 1.3 7.8 3.8 10.1 2.6 2.4 6.2 3.5 10.9 3.5s8.4-1.2 11.2-3.6c2.8-2.4 4.2-5.8 4.2-10V.7h-7.2v28c0 2.4-.7 4.3-2.2 5.6-1.5 1.4-3.5 2.1-6.1 2.1-2.3 0-4.2-.7-5.5-2.1-1.3-1.4-2-3.2-2-5.4V.7h-7.2l.1 28.5zm58.4 13.7c4.4 0 7.9-1.1 10.5-3.3 2.6-2.2 3.9-4.9 3.9-8.3 0-1.9-.3-3.6-.9-5.1-.6-1.5-1.6-2.9-2.8-4-1.2-1.1-3.2-2.4-5.9-3.7-5.2-2.6-7.8-5-7.8-7.4 0-1.4.5-2.6 1.4-3.5.9-.9 2.2-1.3 3.9-1.3 2.8 0 5.5.9 8 2.8l2.2-6.3C295.9 1 292.4.1 287.7.1c-3.6 0-6.6 1.1-8.9 3.2s-3.5 4.8-3.5 8c0 1.6.3 3.2.9 4.7.6 1.4 1.4 2.6 2.5 3.7 1.1 1 3.2 2.3 6.3 3.9 3.1 1.6 5.2 3 6.2 4.3 1 1.3 1.5 2.6 1.5 4 0 3-2.1 4.5-6.4 4.5-2.8 0-5.6-1-8.4-3.1l-2.7 6.6c3.2 2 6.6 3 10.4 3z" fill="#eccd4e"/></svg>