<svg version="1.1" id="Слой_1" xmlns="http://www.w3.org/2000/svg" x="0" y="0" width="30" height="39" viewBox="0 0 29.9 39.2" xml:space="preserve"><style>.st0{fill:#f2f2f2}</style><path id="bhcka" class="st0" d="M7.7 28L1 24.3c-.6-.3-1-1-1-1.7 0-.8.5-1.4 1-1.7l26.3-14c.9-.5 1.9-.2 2.4.8.4.9.1 2-.8 2.5L5.8 22.5l3.9 2c.9.5 1.2 1.5.7 2.5-.4.9-1 1.2-1.8 1.2-.3 0-.6 0-.9-.2zM1.8 17.9c-.6 0-1.3-.3-1.6-1.1-.5-.9-.1-2 .7-2.5L27.2.3c.9-.5 1.9-.2 2.4.8.4.9.1 2-.8 2.5L2.6 17.7c-.3.2-.5.2-.8.2zm9.5 20.2c-.5-.9-.1-2 .7-2.5l15.1-8c.9-.5 1.9-.1 2.4.8s.1 2-.7 2.5L13.9 39c-.3.2-.6.2-.9.2-.6 0-1.4-.3-1.7-1.1z"/><path id="bhckb" class="st0" d="M1.7 38.6c-.6 0-1.3-.3-1.6-1.1-.4-.9 0-2 .9-2.5l23.2-12.3-3.9-2c-.9-.4-1.2-1.5-.8-2.4v-.1c.5-.9 1.5-1.2 2.4-.8l6.9 3.7c.6.3 1.1.9 1.1 1.7 0 .8-.5 1.4-1.1 1.7L2.6 38.3c-.3.1-.6.3-.9.3z"/><path id="bhckc" class="st0" d="M13.1 22.3c0-1 .8-1.8 1.8-1.8s1.8.8 1.8 1.8-.8 1.8-1.8 1.8-1.8-.7-1.8-1.8z"/></svg>