<?xml version="1.0" encoding="utf-8"?>
<!-- Generator: Adobe Illustrator 19.2.1, SVG Export Plug-In . SVG Version: 6.00 Build 0)  -->
<svg version="1.1" id="Слой_1" xmlns="http://www.w3.org/2000/svg" xmlns:xlink="http://www.w3.org/1999/xlink" x="0px" y="0px"
	 viewBox="0 0 20 20" style="enable-background:new 0 0 20 20;" xml:space="preserve">
<style type="text/css">
	.st0{fill:#F7CE40;}
</style>
<path class="st0" d="M17.3,20H2.7C2.3,20,2,19.7,2,19.3V0.7C2,0.3,2.3,0,2.7,0h14.6C17.7,0,18,0.3,18,0.7v18.6
	C18,19.7,17.7,20,17.3,20z M5.4,12h5.3c0.4,0,0.7-0.3,0.7-0.7s-0.3-0.7-0.7-0.7H5.4c-0.4,0-0.7,0.3-0.7,0.7S5,12,5.4,12z M14.6,2.7
	H5.4C5,2.7,4.7,3,4.7,3.4S5,4,5.4,4h9.3c0.4,0,0.7-0.3,0.7-0.7S15,2.7,14.6,2.7z M14.6,5.4H5.4C5,5.4,4.7,5.6,4.7,6
	c0,0.4,0.3,0.7,0.7,0.7h9.3c0.4,0,0.7-0.3,0.7-0.7C15.3,5.6,15,5.4,14.6,5.4z M14.6,8H5.4C5,8,4.7,8.3,4.7,8.7
	c0,0.4,0.3,0.7,0.7,0.7h9.3c0.4,0,0.7-0.3,0.7-0.7C15.4,8.3,15,8,14.6,8z"/>
</svg>
