<?xml version="1.0" encoding="utf-8"?>
<!-- Generator: Adobe Illustrator 19.2.1, SVG Export Plug-In . SVG Version: 6.00 Build 0)  -->
<svg version="1.1" id="Слой_1" xmlns="http://www.w3.org/2000/svg" xmlns:xlink="http://www.w3.org/1999/xlink" x="0px" y="0px"
	 viewBox="0 0 20 20" style="enable-background:new 0 0 20 20;" xml:space="preserve">
<style type="text/css">
	.st0{fill:#F7CE40;}
</style>
<g>
	<polygon class="st0" points="1.1,5.9 1.1,13.4 6,9.3 	"/>
	<path class="st0" d="M10.4,11.9c-0.1,0.1-0.2,0.1-0.4,0.1s-0.3,0-0.4-0.1L7,10l-6,4.9v0c0,0.3,0.3,0.6,0.6,0.6h8.4l8.4,0
		c0.3,0,0.6-0.3,0.6-0.6v0l-6-4.9L10.4,11.9z"/>
	<polygon class="st0" points="19.1,13.4 19.1,5.9 14.2,9.3 	"/>
	<path class="st0" d="M18.5,3.6l-8.4,0H1.7c-0.3,0-0.6,0.3-0.6,0.6v0.3l9,6.2l9-6.2V4.2C19.1,3.8,18.8,3.6,18.5,3.6z"/>
</g>
</svg>
