<?xml version="1.0" encoding="utf-8"?>
<!-- Generator: Adobe Illustrator 19.2.1, SVG Export Plug-In . SVG Version: 6.00 Build 0)  -->
<svg version="1.1" id="Слой_1" xmlns="http://www.w3.org/2000/svg" xmlns:xlink="http://www.w3.org/1999/xlink" x="0px" y="0px"
	 viewBox="0 0 20 20" style="enable-background:new 0 0 20 20;" xml:space="preserve">
<style type="text/css">
	.st0{fill:#F7CE40;}
</style>
<path class="st0" d="M18.7,16.1L18.7,16.1l-4.5-2.7c-0.7-0.4-1.4-0.3-1.9,0.1l-1,0.8c-0.1,0-0.1,0-0.2,0h0c-0.9,0-1.4-0.6-2.1-1.6
	c-0.3-0.3-0.5-0.7-0.9-1.1c-0.3-0.4-0.6-0.7-0.9-1C6.2,9.6,5.7,9,5.9,8.1c0.2-0.1,0.7-0.6,1-0.9c0.5-0.5,0.7-1.1,0.4-1.9L5.5,0.5
	l0,0C5.2,0.2,4.9,0,4.5,0C4.2,0,4,0.1,3.7,0.3C3.3,0.6,1.3,2,1.1,2.7c-0.6,3,1.1,7.6,4.2,11.3c3.1,3.6,7.1,6.1,10.2,6.1
	c0.1,0,0.2,0,0.3,0c0.7,0,2.5-1.8,2.8-2.1C19.1,17.4,19.1,16.7,18.7,16.1z"/>
</svg>
