<?xml version="1.0" encoding="utf-8"?>
<!-- Generator: Adobe Illustrator 19.2.1, SVG Export Plug-In . SVG Version: 6.00 Build 0)  -->
<svg version="1.1" id="Layer_1" xmlns="http://www.w3.org/2000/svg" xmlns:xlink="http://www.w3.org/1999/xlink" x="0px" y="0px"
	 viewBox="0 0 83 70" style="enable-background:new 0 0 83 70;" xml:space="preserve">
<style type="text/css">
	.st0{fill:#262626;}
</style>
<g>
	<path id="amd_3_" class="st0" d="M26,29.2L14.5,0h-2.2L0.9,29.2h5.6l2-5.8h9.8l2.1,5.8H26z M16.8,19.5H10l3.4-10.6L16.8,19.5z
		 M51.5,0.4h-2.7l-6.1,19.4L36.6,0.4h-2.7l-5.8,28.8H33l3.1-15.5l5.8,15.9h1.8l5.8-15.9l3,15.5h4.9L51.5,0.4z M80.9,13.7
		c0-4.1-1.2-7.3-3.7-9.8c-2.4-2.5-5.7-3.7-9.9-3.7c-1,0-3.6,0.1-7.6,0.2v28.8H66C75.9,29.2,80.9,24,80.9,13.7L80.9,13.7z M67.1,4.7
		c5.7,0,8.5,3.1,8.5,9.2c0,3.4-0.7,6-2.2,7.9c-1.5,1.9-3.5,2.8-6,2.8c-1,0-1.8,0-2.7-0.1V4.9C65.7,4.8,66.5,4.7,67.1,4.7L67.1,4.7
		L67.1,4.7z"/>
	<path id="studio_3_" class="st0" d="M3.7,70c1,0,1.8-0.2,2.3-0.7s0.9-1.1,0.9-1.8c0-0.4-0.1-0.8-0.2-1.1c-0.1-0.3-0.3-0.6-0.6-0.9
		c-0.3-0.3-0.7-0.5-1.3-0.8C3.6,64.1,3,63.5,3,63c0-0.3,0.1-0.6,0.3-0.8c0.2-0.2,0.5-0.3,0.9-0.3c0.6,0,1.2,0.2,1.8,0.6l0.5-1.4
		c-0.5-0.4-1.3-0.6-2.3-0.6c-0.8,0-1.5,0.2-2,0.7c-0.5,0.5-0.8,1.1-0.8,1.8c0,0.4,0.1,0.7,0.2,1c0.1,0.3,0.3,0.6,0.6,0.8
		c0.2,0.2,0.7,0.5,1.4,0.9s1.2,0.7,1.4,1c0.2,0.3,0.3,0.6,0.3,0.9c0,0.7-0.5,1-1.4,1c-0.6,0-1.2-0.2-1.9-0.7l-0.6,1.5
		C2.1,69.8,2.9,70,3.7,70L3.7,70L3.7,70z M22.1,62.1v-1.4h-7.5v1.4h2.9v7.7h1.6v-7.7H22.1L22.1,62.1z M30.3,67c0,1,0.3,1.7,0.9,2.2
		c0.6,0.5,1.4,0.8,2.4,0.8c1,0,1.9-0.3,2.5-0.8S37,67.9,37,67v-6.3h-1.6v6.2c0,0.5-0.2,0.9-0.5,1.2c-0.3,0.3-0.8,0.5-1.4,0.5
		c-0.5,0-0.9-0.2-1.2-0.5c-0.3-0.3-0.4-0.7-0.4-1.2v-6.2h-1.6L30.3,67L30.3,67z M52.7,64.9c0-1.3-0.4-2.3-1.2-3.1
		c-0.8-0.8-1.8-1.2-3.1-1.2c-0.3,0-1.1,0-2.4,0.1v9.1h2C51.1,69.8,52.7,68.2,52.7,64.9L52.7,64.9z M48.3,62.1c1.8,0,2.7,1,2.7,2.9
		c0,1.1-0.2,1.9-0.7,2.5c-0.5,0.6-1.1,0.9-1.9,0.9c-0.3,0-0.6,0-0.8,0v-6.2C47.9,62.1,48.2,62.1,48.3,62.1L48.3,62.1L48.3,62.1z
		 M62.9,69.8v-9.1h-1.6v9.1H62.9z M72.4,68.7c0.7,0.9,1.6,1.3,2.8,1.3c1.3,0,2.3-0.4,3.1-1.3c0.7-0.9,1.1-2,1.1-3.5
		c0-1.5-0.3-2.6-1-3.4c-0.7-0.8-1.7-1.2-3-1.2c-1.2,0-2.1,0.5-2.8,1.4c-0.7,0.9-1.1,2-1.1,3.3C71.5,66.7,71.8,67.9,72.4,68.7z
		 M73.7,62.9c0.4-0.6,0.9-0.9,1.7-0.9c1.6,0,2.4,1.1,2.4,3.2c0,1.1-0.2,1.9-0.6,2.5c-0.4,0.6-1,0.9-1.8,0.9c-0.7,0-1.2-0.3-1.6-0.9
		c-0.4-0.6-0.5-1.4-0.5-2.5C73.1,64.2,73.3,63.4,73.7,62.9L73.7,62.9z"/>
	<path id="plus_3_" class="st0" d="M5.2,46.9c3.9,0,5.8-1.7,5.8-5c0-1.5-0.5-2.6-1.6-3.3c-1-0.7-2.7-1-5-1c-0.3,0-1.3,0-3,0.1v14.4
		h2.5v-5.3C4.6,46.8,4.9,46.9,5.2,46.9L5.2,46.9L5.2,46.9z M4.9,39.9c2.4,0,3.6,0.7,3.6,2.2c0,0.9-0.3,1.5-0.8,1.9
		c-0.5,0.4-1.4,0.6-2.5,0.6c-0.3,0-0.7,0-1-0.1v-4.6C4.3,39.9,4.6,39.9,4.9,39.9L4.9,39.9L4.9,39.9z M33.5,52.1v-2.3H27V37.7h-2.5
		v14.4L33.5,52.1L33.5,52.1z M46.7,47.6c0,1.5,0.5,2.7,1.4,3.5c0.9,0.8,2.2,1.2,3.8,1.2c1.6,0,3-0.4,4-1.3c1-0.8,1.5-2,1.5-3.5v-9.9
		h-2.5v9.7c0,0.8-0.3,1.5-0.8,2c-0.5,0.5-1.2,0.7-2.1,0.7c-0.8,0-1.5-0.2-1.9-0.7c-0.5-0.5-0.7-1.1-0.7-1.9v-9.8h-2.5L46.7,47.6
		L46.7,47.6z M74.4,52.3c1.5,0,2.8-0.4,3.7-1.1c0.9-0.8,1.4-1.7,1.4-2.9c0-0.6-0.1-1.2-0.3-1.8c-0.2-0.5-0.5-1-1-1.4
		c-0.4-0.4-1.1-0.8-2.1-1.3c-1.8-0.9-2.7-1.8-2.7-2.6c0-0.5,0.2-0.9,0.5-1.2c0.3-0.3,0.8-0.5,1.4-0.5c1,0,1.9,0.3,2.8,1l0.8-2.2
		c-0.8-0.6-2-0.9-3.6-0.9c-1.3,0-2.3,0.4-3.1,1.1c-0.8,0.7-1.2,1.7-1.2,2.8c0,0.6,0.1,1.1,0.3,1.6c0.2,0.5,0.5,0.9,0.9,1.3
		c0.4,0.4,1.1,0.8,2.2,1.4c1.1,0.6,1.8,1.1,2.2,1.5c0.4,0.4,0.5,0.9,0.5,1.4c0,1-0.7,1.6-2.2,1.6c-1,0-2-0.4-3-1.1l-0.9,2.3
		C71.9,52,73.1,52.3,74.4,52.3L74.4,52.3L74.4,52.3z"/>
</g>
</svg>
