<?xml version="1.0" encoding="utf-8"?>
<!-- Generator: Adobe Illustrator 19.2.1, SVG Export Plug-In . SVG Version: 6.00 Build 0)  -->
<svg version="1.1" id="Слой_1" xmlns="http://www.w3.org/2000/svg" xmlns:xlink="http://www.w3.org/1999/xlink" x="0px" y="0px"
	 viewBox="0 0 83 70" style="enable-background:new 0 0 83 70;" xml:space="preserve">
<style type="text/css">
	.st0{fill:#272727;}
</style>
<g>
	<path class="st0" d="M67.2,33.4c-4.2,0.9-7.1,3.6-8.9,6.2c-1.5-1.2-4.3-2.8-9.1-3.4c-3.9-0.5-6.8,0.2-8.8,1.3
		c0.1-0.4,0.1-0.9,0.1-1.3c0.6-9.7,2.7-17.2,3.4-19.8l1.1-0.1c0,0.6,0.1,1.3,0.2,1.8c0,0.2,0,0.4,0.1,0.5c0.1,0.4,1.3,4.1,4.2,4.5
		c0.2,0,0.5,0,0.7,0c4.2,0,6.5-3.9,7.8-6.1c1.6-2.7,3.1-5.5,2.6-7.6c-0.5-2-3.1-3.3-6.2-4.6l-0.7-0.3c-2.8-1.2-5.5-2-5.8-2
		c-2.3-0.7-5.2-1.4-6.5-0.8C40.1,2.4,39,4,38.6,4.7c-0.5,0.5-2.3,2.2-4.4,4.4l-0.3,0.4c-2.6,2.8-7.5,8-12.5,17.5
		c-4.9,9.1-6.3,23.2-6.5,25.8c-0.4,0.6-1.1,1.8-1.6,3.3c-1,2.8,0.9,4.4,2,5.4c0.2,0.2,0.4,0.4,0.6,0.6c1.4,1.5,4.6,1.9,5.8,2
		c1.4,0.7,8.3,3.6,20.3,4.4c1.5,0.1,2.9,0.1,4.2,0.1c11.8,0,14.8-3.4,15.1-3.8c0.5-0.7,0.4-1.6-0.3-2.2c-0.7-0.5-1.6-0.4-2.1,0.3
		c0,0-3.2,3.3-16.8,2.5c-12.6-0.7-19.3-4.1-19.4-4.2c0,0,0,0,0,0c-0.1,0-0.1,0-0.2-0.1c0,0-0.1,0-0.1,0c0,0,0,0-0.1,0
		c-0.1,0-0.2,0-0.2,0c0,0,0,0,0,0c-1.5-0.1-3.6-0.6-4.1-1.1c-0.2-0.3-0.5-0.5-0.8-0.8c-1.2-1.1-1.4-1.4-1.1-2.1c0.6-1.6,1.5-3,1.5-3
		c0,0,0-0.1,0-0.1c0-0.1,0.1-0.1,0.1-0.2c0,0,0-0.1,0-0.1c0,0,0-0.1,0-0.1c0-0.1,0-0.1,0-0.2c0,0,0-0.1,0-0.1c0-0.2,1.2-15.7,6.2-25
		c4.8-9.1,9.5-14.1,12.1-16.8l0.3-0.4c2.4-2.6,4.3-4.4,4.4-4.4c0,0,0,0,0,0c0,0,0,0,0,0C40.9,6.6,41,6.5,41,6.5c0,0,0,0,0,0
		c0.4-0.7,1.2-1.6,1.6-1.9c0.6-0.1,2.6,0.3,4.4,0.9c0,0,0,0,0,0s0,0,0,0c0,0,2.8,0.7,5.4,1.9l0.7,0.3c1.1,0.5,4.2,1.8,4.5,2.6
		c0.3,1.1-1.6,4.2-2.2,5.2c-1.5,2.5-3.1,4.9-5.7,4.6c-0.5-0.1-1-0.9-1.4-1.7c0,0,0-0.1,0-0.1c-0.2-0.7-0.3-1.6-0.3-2.1
		c0.3,0.1,0.8,0.4,1.6,0.9c0.7,0.5,1.6,0.3,2.1-0.4c0.5-0.7,0.3-1.6-0.4-2.1c-1.1-0.8-2.6-1.7-4-1.5l-4.7,0.3c-0.6,0-1.1,0.4-1.3,1
		c-0.1,0.4-3.1,9.2-3.9,21.5c-0.1,2.2-0.7,4.1-1.5,5.6c-0.1,0.1-0.1,0.2-0.1,0.2c0,0,0,0,0,0c-1.7,3.3-4.1,4.9-4.2,5
		c-0.7,0.5-0.9,1.4-0.5,2.1c0.3,0.5,0.8,0.7,1.3,0.7c0.3,0,0.6-0.1,0.8-0.2c0.2-0.1,3.3-2.2,5.4-6.3c0.4-0.6,3-4.7,10.1-3.8
		c4.6,0.6,6.9,2.2,7.9,3c-1,2-1.4,3.5-1.4,3.7c-0.2,0.8,0.3,1.6,1.1,1.8c0.1,0,0.2,0,0.4,0c0.7,0,1.3-0.5,1.5-1.1
		c0-0.1,2.2-8.6,9.6-10.3c0.8-0.2,1.3-1,1.1-1.8C68.8,33.7,68,33.2,67.2,33.4z"/>
	<path class="st0" d="M53.9,54.3c-0.3,0.3-8.6,6.2-18-1.1c-0.7-0.5-1.6-0.4-2.1,0.3c-0.5,0.7-0.4,1.6,0.3,2.1
		c4.1,3.2,8.1,4.2,11.5,4.2c5.9,0,10-3.1,10.1-3.1c0.7-0.5,0.8-1.4,0.3-2.1S54.5,53.8,53.9,54.3z"/>
</g>
</svg>
