<?xml version="1.0" encoding="utf-8"?>
<!-- Generator: Adobe Illustrator 19.2.1, SVG Export Plug-In . SVG Version: 6.00 Build 0)  -->
<svg version="1.1" id="Слой_1" xmlns="http://www.w3.org/2000/svg" xmlns:xlink="http://www.w3.org/1999/xlink" x="0px" y="0px"
	 viewBox="0 0 83 70" style="enable-background:new 0 0 83 70;" xml:space="preserve">
<style type="text/css">
	.st0{fill:#272727;}
</style>
<g>
	<path class="st0" d="M82.8,43.4c0-0.8-0.7-1.5-1.5-1.5l-12,0.1l3.3-2.5c0.7-0.5,0.8-1.4,0.3-2.1l-6.6-9.1l6.6-6.7
		c1-1,1.6-2.4,1.6-3.9c0-1.5-0.6-2.9-1.6-3.9L60.9,1.6c-1-1-2.4-1.6-3.8-1.6c0,0,0,0,0,0c-1.5,0-2.8,0.6-3.8,1.6L37.7,17.3L24.1,3.4
		c-0.5-0.6-1.6-0.6-2.1,0L0.4,25.3c-0.6,0.6-0.6,1.5,0,2.1l18.1,18.4l-2.2,1.7c-0.7,0.5-0.8,1.4-0.3,2.1l14.4,19.8l0.2,0.2
		c0.1,0.1,0.3,0.2,0.3,0.2l0.1,0.1c0.2,0.1,0.4,0.2,0.7,0.2l49.9-0.5c0.4,0,0.8-0.2,1.1-0.5c0.3-0.3,0.4-0.7,0.4-1.1L82.8,43.4z
		 M36.8,32.1L61.7,6.7l2,2L38.8,34.1L36.8,32.1z M62.3,35c-0.4,1.1-0.6,2.3-0.5,3.5l-4.7,3.5l-4.5,0l8.6-8.7L62.3,35z M62.2,42
		l2.1-1.6c0.4-0.3,0.7-0.9,0.6-1.4c0-0.3-0.1-0.6-0.1-0.9c0-0.9,0.2-1.9,0.6-2.8c0.1-0.2,0.1-0.5,0.1-0.8c0-0.1,0-0.3-0.1-0.4
		c0-0.1-0.1-0.2-0.2-0.4l-1.9-2.6l0.8-0.8l5.5,7.5L64.1,42L62.2,42z M70.7,19.4L49.2,41.2c-0.4,0.4-0.8,0.6-1.3,0.7
		c-0.8,0.1-1.6-0.1-2.1-0.7l-2.1-2.1L43.6,39l-2.7-2.8l24.9-25.3l4.9,5c0.5,0.5,0.7,1.1,0.7,1.8C71.4,18.3,71.2,18.9,70.7,19.4z
		 M33,56.6l-0.1-9.9l1.5-0.1c0.7,0,1.4-0.6,1.4-1.3l4.8,0l0,0l39.2-0.4L80,66.5l-46.9,0.4v-9.7C33.1,57,33,56.8,33,56.6z M25.9,45.3
		l-0.1,3.5L3.6,26.3L23,6.6l12.6,12.8l-3.9,4c-1.7,1.7-2.1,4.3-1,6.4l-8.8,9c-0.6,0.6-0.6,1.5,0,2.1c0.6,0.6,1.6,0.6,2.1,0l8.6-8.8
		l4.3,4.3l-2.4,0.1c-0.8,0-1.4,0.7-1.5,1.5l-0.2,5.6l-5.5,0.2C26.6,43.9,25.9,44.5,25.9,45.3z M42.6,42.2L42.6,42.2
		C42.5,42.2,42.5,42.2,42.6,42.2L42.6,42.2z M35.9,42.3l0.1-2.7l3.8-0.1l0.6,0.6c-0.5,0.6-0.9,1.4-1.1,2.2L35.9,42.3z M34.7,29.9
		l-0.8-0.8c0,0-0.1-0.1-0.1-0.1c-0.9-1-0.9-2.5,0.1-3.4L55.3,3.7c0.9-0.9,2.5-0.9,3.4,0l0.8,0.9L34.7,29.9z M20.6,47.9l5.4,5.5
		c2,2.3,3.2,3.6,3.9,4.3l0.1,6L19.2,49L20.6,47.9z M28.7,51.9l0.2-5l1,0l0.1,6.5C29.5,52.8,29.1,52.4,28.7,51.9z"/>
	<path class="st0" d="M55.4,61.1c0.3,0.1,0.7,0.1,1.1,0.1c0.3,0,0.6,0,1-0.1l0.1,0c0.1,0,0.2-0.1,0.3-0.1l0.1,0
		c0.9-0.3,1.6-0.7,2.2-1.4c0.2-0.3,0.5-0.5,0.7-0.8c0.4-0.6,0.6-1.2,0.7-1.9c0.1-0.4,0.1-0.7,0.1-1.1c0-1.4-0.6-2.7-1.6-3.8
		c-1-1-2.3-1.5-3.7-1.5c-1.4,0-2.7,0.6-3.7,1.6c-0.4,0.4-0.7,0.9-1,1.5c-0.3,0.8-0.5,1.5-0.5,2.3c0,1.4,0.6,2.8,1.6,3.8
		C53.5,60.5,54.4,60.9,55.4,61.1z M54.2,55.9c0-0.3,0.1-0.7,0.2-1c0.1-0.2,0.2-0.4,0.4-0.6c0.4-0.4,1-0.7,1.6-0.7c0.1,0,0.2,0,0.3,0
		l0.1,0c0.4,0.1,0.8,0.3,1.1,0.6c0.4,0.4,0.7,1,0.7,1.6c0,0.6-0.2,1.2-0.6,1.6c-0.2,0.2-0.5,0.4-0.8,0.5c-0.3,0.1-0.5,0.1-0.7,0.1
		l0,0l0,0c-0.6,0-1.2-0.3-1.6-0.6C54.4,57.1,54.2,56.5,54.2,55.9z"/>
	<path class="st0" d="M34.1,61c0,0.5,0.3,1,0.8,1.3c0.9,0.5,1.6,1.2,2.2,2c0.2,0.2,0.3,0.4,0.4,0.7c0.3,0.5,0.8,0.8,1.3,0.8
		l35.3-0.3c0.5,0,1-0.3,1.3-0.8c0.6-1.1,1.5-2,2.6-2.7c0.5-0.3,0.7-0.8,0.7-1.3l-0.1-9.8c0-0.5-0.3-1-0.8-1.3
		c-1.1-0.6-2-1.5-2.6-2.6c-0.3-0.5-0.8-0.8-1.3-0.8l-35.3,0.3c-0.5,0-1,0.3-1.3,0.8c-0.6,1.1-1.5,2-2.6,2.7
		c-0.5,0.3-0.8,0.8-0.8,1.3l0.1,8.9V61z M37.1,52c1-0.7,1.8-1.6,2.5-2.6l33.7-0.3c0.7,1,1.5,1.8,2.5,2.5l0.1,8.1
		c-1,0.7-1.8,1.6-2.5,2.6l-33.7,0.3c0-0.1-0.1-0.1-0.1-0.2c-0.6-0.9-1.4-1.7-2.4-2.3L37.1,52z"/>
	<path class="st0" d="M24.9,12.5c-0.6-0.6-1.6-0.6-2.1,0L9.4,26.1c-0.6,0.6-0.6,1.5,0,2.1c0.3,0.3,0.7,0.4,1.1,0.4s0.8-0.2,1.1-0.4
		l13.4-13.6C25.5,14.1,25.5,13.1,24.9,12.5z"/>
	<path class="st0" d="M31.2,18.9c-0.6-0.6-1.6-0.6-2.1,0L15.7,32.5c-0.6,0.6-0.6,1.5,0,2.1c0.3,0.3,0.7,0.4,1.1,0.4s0.8-0.2,1.1-0.4
		L31.2,21C31.7,20.4,31.7,19.4,31.2,18.9z"/>
	<path class="st0" d="M67.5,16.1L61.7,22c-0.6,0.6-0.6,1.5,0,2.1c0.3,0.3,0.7,0.4,1.1,0.4s0.8-0.2,1.1-0.4l5.8-5.9
		c0.6-0.6,0.6-1.5,0-2.1C69,15.5,68,15.5,67.5,16.1z"/>
</g>
</svg>
