<?xml version="1.0" encoding="utf-8"?>
<!-- Generator: Adobe Illustrator 19.2.1, SVG Export Plug-In . SVG Version: 6.00 Build 0)  -->
<svg version="1.1" id="Слой_1" xmlns="http://www.w3.org/2000/svg" xmlns:xlink="http://www.w3.org/1999/xlink" x="0px" y="0px"
	 viewBox="0 0 83 70" style="enable-background:new 0 0 83 70;" xml:space="preserve">
<style type="text/css">
	.st0{fill:#272727;}
</style>
<g>
	<rect x="64.7" y="5.6" class="st0" width="3.3" height="18.8"/>
	<path class="st0" d="M72.5,27.9V7.6c0-4.1-3.8-7.5-8.4-7.5c-4.6,0-8.4,3.4-8.4,7.5v20.3c-2.5,0.2-4.5,2.4-4.5,4.9
		c0,0.3,0,0.7,0.1,1c-0.7-1.8-1.4-3.4-1.9-4.5c1.8-1.5,2.8-3.4,2.8-5.4c0-2.6-1.7-5.1-4.7-6.6L45.2,5.1l-6.5-4.3v2.4l-4.4,5.5
		l-1.1,8.5c-2.9,1.6-4.6,4-4.6,6.6c0,2,1,3.9,2.8,5.4c-1.6,3.6-5,11.8-5,19.1c0,6.7,2.4,14.4,3.8,18.4c0.7,1.9,2.6,3.3,4.7,3.3
		c2.7,0,5-2.2,5-4.9v-0.6c0-0.5-0.1-1-0.3-1.5c-0.5-1.5-3.1-9.5-3.1-14.6c0-7.7,2.8-14,3.9-16.2c0.1,0,0.2,0,0.3,0
		c1.1,2.2,3.9,8.5,3.9,16.2c0,5.1-2.6,13-3.1,14.6c-0.2,0.5-0.3,1-0.3,1.5v0.6c0,2.7,2.2,4.9,5,4.9c2.1,0,4-1.3,4.7-3.3
		c1.4-4,3.8-11.6,3.8-18.4c0-4.5-1.3-9.4-2.7-13.4c0.8,1.6,2.5,2.7,4.5,2.7h4V70H68V37.7h4c2.8,0,5-2.2,5-4.9
		C77,30.2,75,28.1,72.5,27.9z M39.7,23.9c0-0.3,0.3-0.6,0.6-0.6c0.3,0,0.6,0.3,0.6,0.6c0,0.3-0.3,0.6-0.6,0.6
		C40,24.5,39.7,24.2,39.7,23.9z M42.9,21c-0.3-0.2-0.6-0.4-0.9-0.6V6.9l0.3,0.2l2.1,11.4l0.1,0.6L42.9,21z M40.4,27.7
		c1.9,0,3.5-1.4,3.8-3.2l3-3.7c1.1,0.9,1.7,1.9,1.7,3c0,2.7-4,5.1-8.5,5.1c-4.5,0-8.5-2.4-8.5-5.1c0-1.2,0.8-2.5,2.3-3.4l2.4,3.9
		C36.8,26.3,38.4,27.7,40.4,27.7z M38.7,20.4c-0.2,0.1-0.4,0.2-0.6,0.3L36.4,18l1-7.9l1.3-1.6V20.4z M34.1,31.2
		c0-0.1,0.1-0.1,0.1-0.2c0.2,0.1,0.4,0.2,0.6,0.2H34.1z M30.1,43.3H33v-3.2h-2.1c0.1-0.4,0.2-0.8,0.3-1.2h2.9v-3.2h-1.8
		c0.2-0.4,0.3-0.8,0.5-1.2h2.5v-3c0.5,0.2,1,0.3,1.6,0.4c-1.5,3.3-3.7,9.3-3.7,16.6c0,5.4,2.5,13.3,3.3,15.6
		c0.1,0.2,0.1,0.4,0.1,0.5v0.6c0,0.9-0.8,1.7-1.7,1.7c-0.7,0-1.4-0.4-1.6-1.1c-1.3-3.8-3.6-11.1-3.6-17.3
		C29.6,46.8,29.8,45.1,30.1,43.3z M46.7,31.2H46c0.2-0.1,0.4-0.1,0.6-0.2C46.6,31,46.6,31.1,46.7,31.2z M44.3,64.4
		c0-0.2,0-0.4,0.1-0.5c0.8-2.3,3.3-10.2,3.3-15.6c0-7.3-2.2-13.3-3.7-16.6c0.5-0.1,1.1-0.3,1.6-0.4v3H48c0.2,0.4,0.3,0.8,0.5,1.2
		h-1.8v3.2h2.9c0.1,0.4,0.2,0.8,0.3,1.2h-2.1v3.2h2.9c0.4,1.9,0.5,3.6,0.5,5.1c0,6.2-2.3,13.5-3.6,17.3c-0.2,0.7-0.9,1.1-1.6,1.1
		c-0.9,0-1.7-0.7-1.7-1.7V64.4z M63.5,66.7v-29h1.3v29H63.5z M64.7,25.6v2.2h-1.3V5.6h-3.3v22.2h-1.3V7.6c0-2.4,2.3-4.3,5.1-4.3
		s5.1,1.9,5.1,4.3v20.3H68v-2.2H64.7z M73.7,32.8c0,1-0.8,1.7-1.8,1.7H56.2c-1,0-1.8-0.8-1.8-1.7c0-1,0.8-1.7,1.8-1.7H72
		C73,31,73.7,31.8,73.7,32.8z"/>
	<path class="st0" d="M23.9,53.4V21.6c3.5-2.1,5.6-5.8,5.6-9.9c0-4.9-3.2-9.3-7.9-10.9L19.6,0l0,10.1H16V0l-2.2,0.8
		C9.2,2.3,6,6.7,6,11.7c0,4.1,2.1,7.8,5.6,9.9v31.8c-2.2,1.8-3.4,4.4-3.4,7.2c0,4.9,3.8,9,8.7,9.3c0.3,0,0.5,0,0.8,0
		c0.3,0,0.5,0,0.8,0c4.9-0.4,8.8-4.5,8.8-9.3C27.3,57.8,26.1,55.2,23.9,53.4z M14.2,55.5l0.7-0.5V19.6L14,19.2
		c-2.9-1.4-4.7-4.3-4.7-7.5c0-2.7,1.3-5.2,3.5-6.8v5.7c0,1.5,1.2,2.7,2.8,2.7H20c1.5,0,2.8-1.2,2.8-2.7l0-5.7
		c2.2,1.6,3.5,4.1,3.5,6.8c0,3.2-1.8,6.1-4.7,7.5l-0.9,0.4V55l0.7,0.5c1.7,1.2,2.7,3.1,2.7,5.1c0,3.2-2.5,5.9-5.8,6.2l0,0
		c-0.3,0-0.6,0-1,0c-3.2-0.3-5.8-3-5.8-6.2C11.5,58.6,12.5,56.7,14.2,55.5z"/>
	<path class="st0" d="M17.8,65.5c2.8,0,5-2.2,5-4.9c0-2.7-2.3-4.9-5-4.9s-5,2.2-5,4.9C12.8,63.3,15,65.5,17.8,65.5z M16,60.6
		c0-1,0.8-1.7,1.8-1.7c1,0,1.8,0.8,1.8,1.7c0,1-0.8,1.7-1.8,1.7C16.8,62.3,16,61.5,16,60.6z"/>
</g>
</svg>
