<svg xmlns="http://www.w3.org/2000/svg" width="15" height="16" viewBox="0 0 15 16"><path d="M7.5 0C3.8 0 0 1.1 0 3.2v9.6C0 14.9 3.8 16 7.5 16s7.5-1.1 7.5-3.2V3.2C15 1.1 11.2 0 7.5 0zm0 1.6c3.8 0 5.8 1.1 5.8 1.6s-2 1.6-5.8 1.6-5.8-1.1-5.8-1.6 2-1.6 5.8-1.6zm0 12.8c-3.8 0-5.8-1.1-5.8-1.6v-1.1c1.4.7 3.6 1.1 5.8 1.1s4.4-.4 5.8-1.1v1.1c0 .5-2 1.6-5.8 1.6zm0-3.2c-3.8 0-5.8-1.1-5.8-1.6V8.5c1.4.7 3.6 1.1 5.8 1.1s4.4-.4 5.8-1.1v1.1c0 .5-2 1.6-5.8 1.6zm0-3.2C3.7 8 1.7 6.9 1.7 6.4V5.3c1.4.7 3.6 1.1 5.8 1.1s4.4-.4 5.8-1.1v1.1c0 .5-2 1.6-5.8 1.6z" fill="#fff"/></svg>