<svg version="1.1" id="Layer_1" xmlns="http://www.w3.org/2000/svg" x="0" y="0" width="74" height="50" viewBox="0 0 74 50" xml:space="preserve"><path class="svg-path" d="M15 13.5C8.4 13.5 3 18.7 3 25s5.4 11.5 12 11.5S27 31.3 27 25c.1-6.3-5.3-11.5-12-11.5zM24.2 25c0 4.8-4.1 8.7-9.1 8.7S6 29.8 6 25c-.1-4.8 4-8.7 9-8.7s9.2 3.9 9.2 8.7z"/><path class="svg-path" d="M29.7 13.5c-6.6 0-12 5.2-12 11.5s5.4 11.5 12 11.5 12-5.2 12-11.5-5.4-11.5-12-11.5zM38.8 25c0 4.8-4.1 8.7-9.1 8.7s-9.1-3.9-9.1-8.7 4.1-8.7 9.1-8.7 9.1 3.9 9.1 8.7z"/><path class="svg-path" d="M44.3 13.5c-6.6 0-12 5.2-12 11.5s5.4 11.5 12 11.5 12-5.2 12-11.5c.1-6.3-5.3-11.5-12-11.5zM53.5 25c0 4.8-4.1 8.7-9.1 8.7s-9.1-3.9-9.1-8.7 4.1-8.7 9.1-8.7 9.1 3.9 9.1 8.7z"/><path class="svg-path" d="M59 13.5c-6.6 0-12 5.2-12 11.5s5.4 11.5 12 11.5S71 31.3 71 25s-5.4-11.5-12-11.5zM68.1 25c0 4.8-4.1 8.7-9.1 8.7s-9.1-3.9-9.1-8.7 4.1-8.7 9.1-8.7 9.1 3.9 9.1 8.7z"/></svg>