<svg version="1.1" id="Layer_1" xmlns="http://www.w3.org/2000/svg" x="0" y="0" width="74" height="50" viewBox="0 0 74 50" xml:space="preserve"><path class="svg-path" d="M37 2.5C24.6 2.5 14.5 12.6 14.5 25S24.6 47.5 37 47.5 59.5 37.4 59.5 25 49.4 2.5 37 2.5zm0 36.3c-7.6 0-13.8-6.2-13.8-13.8S29.4 11.2 37 11.2 50.8 17.4 50.8 25 44.6 38.8 37 38.8zM24.8 11.5c.5-.3 1.1-.4 1.7-.2.5.2.9.7 1 1.3 0 .2 0 .4-.1.7-.1.4-.4.7-.7 1.1-.5.6-1 1.3-1.5 1.9-.4.5-.9 1.1-1.3 1.6l-.1.1c-.2-.1-.3-.3-.5-.4-.6-.5-1.2-1-1.9-1.5-.6-.5-1.3-1-1.9-1.5-.2-.1-.3-.3-.5-.4h-.1l.1-.1c.5-.6.9-1.2 1.3-1.7.5-.6 1-1.2 1.5-1.9.1-.1.2-.2.3-.4.2-.2.4-.3.7-.4.5-.2 1.1-.1 1.5.3.2.2.4.5.4.7.1.3 0 .6.1.8zm15.8-7.2l.2 6.2-1.6-.2-.2-4.1-1.5 4.1h-1.1l-1.5-4.1-.2 4.1-1.5.2.2-6.2 2.1-.2L37 8.5l1.5-4.4 2.1.2zm9.5 13.6l-.8-1.4 2.7-3.6-4.1 1.9-1.1-1.1 3.7-4.8 1.1 1.1-2.1 2.8 3.4-1.6 1 1.3-2.3 3 3.2-1.5.8 1.4-5.5 2.5z"/><path class="svg-path" d="M24.1 13.6l-1.2 1.5c.2.2.4.4.6.5.1.1.2.2.4.3l.1.1c.4-.6.9-1.1 1.3-1.7.2-.2.3-.4.5-.6.2-.2.2-.5.1-.7-.1-.3-.4-.4-.7-.4-.2 0-.4.1-.6.3-.1.2-.3.5-.5.7zm-.3-1.6c.1-.2 0-.5-.2-.6-.1-.2-.5-.3-.7-.2s-.3.3-.5.4c-.5.6-1 1.2-1.4 1.8l-.1.1c.1.1.2.2.3.2.3.2.5.4.8.6.3-.3.5-.6.8-1 .2-.2.4-.5.7-.8.1-.1.2-.3.3-.5zm.1 13H37V11.9c-7.1.2-12.9 6-13.1 13.1zM37 38.1c7.1-.2 12.9-5.9 13.1-13.1H37v13.1z"/></svg>