<svg xmlns="http://www.w3.org/2000/svg" width="74" height="50" viewBox="0 0 74 50"><path d="M6.1 32.2h18.6c.6 0 .8.3.8.8v2.8c0 .8.5 1.2 1.2 1.2h21c.7 0 1.2-.4 1.2-1.2V33c0-.6.2-.8.8-.8h11.7c.8 0 1.4-.2 1.8-1L69 19.6c-.1-.3 0-.4 0-.7 0-.8-.7-1.1-1.1-1.1H49.6c-.5 0-.8-.1-.8-.8v-2.8c0-.8-.4-1.2-1.2-1.2h-21c-.8 0-1.2.4-1.2 1.2V17c0 .6-.3.8-.8.8h-12c-.9 0-1.5.5-1.7 1L5.1 30.6c-.1.2-.1.3-.1.5 0 .5.3 1.1 1.1 1.1zm4.6-4.7l2.8-5.6c.1-.2.3-.3.7-.3h14.1c.5 0 .8-.2.8-.8v-3.3c0-.6.2-.8.8-.8h14.5c.5 0 .8.2.8.8v3.2c0 .5.3.8.8.8h16.7c.5 0 .7.4.7.6 0 .1 0 .2-.1.3L60.5 28c-.2.3-.5.3-.7.3H46c-.6 0-.8.3-.8.8v3.2c0 .5-.2.8-.8.8H29.8c-.5 0-.8-.2-.8-.8v-3.2c0-.6-.3-.8-.8-.8H11.4c-.4 0-.7-.3-.7-.6v-.2z" fill="#595b60"/></svg>