<svg version="1.1" id="Layer_1" xmlns="http://www.w3.org/2000/svg" x="0" y="0" width="74" height="50" viewBox="0 0 74 50" xml:space="preserve"><path class="svg-path" d="M51.7 38.9c.1.1.2.2.4.1.3 0 .3-.5.3-.5s.1-1.1.1-2.1c0-1.3-1-2.5-1-2.5S40.8 22 37 22 22.5 33.9 22.5 33.9s-1 1.2-1 2.5c0 1.1.1 2.1.1 2.1s0 .5.3.5c.2 0 .3-.1.4-.1 1.2-1.1 10.8-9.3 14.7-9.3 4-.1 13.5 8.2 14.7 9.3z"/><path class="svg-path" d="M21.9 28c.2 0 .3-.1.4-.1 1.2-1 10.8-9.3 14.7-9.3 4 0 13.5 8.3 14.7 9.3.1.1.2.2.4.1.3 0 .3-.5.3-.5s.1-1.1.1-2.1c0-1.3-1-2.5-1-2.5S40.8 11 37 11 22.5 22.9 22.5 22.9s-1 1.2-1 2.5c0 1.1.1 2.1.1 2.1s0 .5.3.5z"/></svg>