<svg version="1.1" id="Layer_1" xmlns="http://www.w3.org/2000/svg" x="0" y="0" width="74" height="50" viewBox="0 0 74 50" xml:space="preserve"><path class="svg-path" d="M37 11C17 11 .7 17.3.7 25S17 39 37 39s36.3-6.2 36.3-14S57 11 37 11zm0 25.5C18.3 36.5 3.2 31.4 3.2 25c0-6.3 15.1-11.5 33.8-11.5 18.6 0 33.8 5.1 33.8 11.5S55.7 36.5 37 36.5z"/><path class="svg-path" d="M57.6 28.3c-.1 0-.3.2-.4.4-.5.5-2.5 2.6-3.5 2.7.2 0-.4.1-.4-.4 0-.3.2-.7.3-.9l5.4-9.7h-2L53.8 26c-.3-.5-.6-1.7-2.1-1.7-2.5 0-3.4 1.7-5.1 3.3-.6.4-1.2 1-2.6 1-.8 0-1.4-.7-1.3-1.5.1-.7.3-1 .8-1.2.2.7.7 1 1.4 1 .8 0 1.3-.8 1.3-1.5 0-.6-.4-1.3-1.4-1.3-.9-.1-1.6.4-2.6 1.6 0 0 .3-1.7-1.6-1.7-.2 0-.4 0-.6.1-1 .3-2.4 2-3.4 3.3.1-.3.1-.5.1-.8 0-.7-.3-1.7-.8-2.2-.1-.1-.2-.1-.3-.1-.3 0-.6.3-.6.7.3.3.6.9.6 1.5s-.2 1.7-.4 2.2c-1 1.7-2.2 2.7-3.6 2.5-.8-.2-1.3-.9-1.2-2.1.1-.7.5-1.6.9-2.1.6-.9 1.7-1.8 3.2-2 0 0 .1-.3-.1-.5-.1-.1-.2-.3-.5-.3-2.1.1-3.4 1.6-4.2 3.2-.3.5-.7 1.3-.9 1.8 0 0-.2.6-1.1 1.3-.7.4-.8.5-.9.5 0 .2.2.4.4.6.1.1.3-.1.4-.2 1.2-.7 1.3-1 1.3-1 .3 1.4 1.5 2.2 2.8 2.2 1.8 0 3.5-1.7 4.5-3.2 1-1.6 2.4-3.1 2.4-3.1.6-.5 1.1-.9 1.5-.9.3 0 .6.3.5.6-.1.5-.3 1-.7 1.7l-2.7 4.7h2.1c1.2-2.4 1.3-2.4 2.5-4.7.3 1.3 1 1.7 2 1.8.9 0 1.5 0 2.2-.4-.2.7-.1 1.4.2 1.9.3.6.8 1.3 2 1.4 1.5 0 2.9-.7 3.4-1 .1.7.5 1.1 1.4 1.1 1.9-.1 3.5-2 4.6-3.3.2-.2.4-.6.4-.7-.1-.1-.3-.2-.4-.2zm-4.9-.7s-.9 1.5-1.7 2.4c-1.6 1.6-2.6 1.1-2.8.9s-.4-.8-.3-1.5c.1-.6.6-1.7 1-2.3.9-1.1 2-1.9 2.9-1.8 1.1.1 1.2 1.2.7 2.2l.2.1zm-5.2-11.5c-.6 0-.3.1-1.6.3-1.3.2-2.9.2-4.2.2-3.4-.1-7.6-.8-9.3-1.1-1.5-.3-2.8-.4-4-.4-6.3 0-8.8 2.6-8.8 5.1 0 1.4 1 2.7 2.4 2.7 2.6 0 4.1-2.8 4.3-3.8 0 0 .1-.2-.1-.3-.1-.1-.3 0-.4.2-.4.8-1.8 1.8-2.8 2-.9.2-1.6-.3-1.6-1.1-.1-1.9 2.1-4.1 6.9-4.1 1.4 0 3.1.4 5.1.8 1.8.4 5.7 2.2 9.4 2.2 2.4 0 5.2-1.6 5.2-2.4 0-.1 0-.3-.5-.3z"/><path class="svg-path" d="M34 19.6c-.8-.1-1.4.5-1.5 1.6 0 .3.1.6.1.6s-1.8.3-3.3.4c1.9-3.2 3.6-4.3 4.1-4.8l.4-.4c.1-.3-.1-.4-.2-.4-.6 0-3.5 2.2-5.8 5.7-.6.1-3 .3-3.8 1.2-.1.1-.2.3-.2.3.1.2.2.3.4.1.5-.6 2.5-.8 3-.8-3 4.2-5.7 7-8.1 7-.3 0-.5 0-.8-.1-1-.2-1.6-1.3-1.6-2.2 0-1.3 1.2-2.6 1.9-2.9.2-.1.3-.2.3-.3 0-.2-.1-.3-.4-.3-2.2.7-3.5 2.7-3.4 4.3.1 2.6 2 4.1 4.2 4.1 3.1 0 4.6-1.4 9.6-9.6 2-.2 3-.3 4-.5 0 0 .3.7 1.1.7.1 0 .1-.1.2-.4-.3 0-.7-.3-.7-.5.3-.2.6-.3.8-.5.3-.3.7-.9.7-1.4-.2-.4-.5-.8-1-.9zm-.2 1.6c-.4.4-.6.4-.6.4-.1-.3-.1-.6 0-1s.3-.6.7-.6c.2 0 .3.2.3.3 0 .3-.2.8-.4.9z"/></svg>