<svg version="1.1" id="Layer_1" xmlns="http://www.w3.org/2000/svg" x="0" y="0" width="74" height="50" viewBox="0 0 74 50" xml:space="preserve"><path class="svg-path" d="M16.2 33.5c.2 1.1.5 2.2.9 3.3.3.6.6 1.2.9 1.7.7 1 1.7 1.8 2.9 2.3.5.2 1 .4 1.5.5 1.4.4 2.8.6 4.3.7l4.2.3c2 .1 4 .1 5.6.1 1.7 0 2.9 0 4.2-.1 1.7 0 3.5-.1 5.3-.2 1.3-.1 2.6-.2 3.9-.5 1.1-.2 2.1-.5 3.1-.9 1.6-.7 2.9-1.8 3.6-3.4.3-.7.6-1.4.8-2.1.4-1.4.6-2.8.8-4.2.2-1.4.3-2.8.5-4.2l.3-4.2c.1-2.2.1-4.5-.1-6.7-.1-.9-.2-1.7-.5-2.5-.5-1.4-1.2-2.6-2.4-3.5-.8-.6-1.6-1-2.5-1.3-1.2-.4-2.5-.6-3.7-.8-1.6-.2-3.1-.3-4.7-.4s-3.2-.1-4.9-.2c-2.2-.1-4.3 0-6.5 0-2.4 0-4.9.1-7.3.4-1.2.1-2.4.2-3.6.5-1 .2-2 .4-3 .8-1.7 1-3 2.1-3.7 3.6-.5.9-.7 1.9-.9 2.8-.1 1.1-.2 2.1-.2 3.1v4c0 2.4.3 4.8.5 7.1.2 1.4.4 2.7.7 4zm1-13c0-1.1.1-2.3.1-3.4.1-1 .2-2 .5-3 .4-1.2 1.1-2.3 2.2-3 .6-.4 1.3-.7 2-1 .8-.3 1.6-.4 2.4-.5 1.1-.1 2.3-.3 3.5-.4.8-.1 1.6-.1 2.4-.2 1.3-.1 2.7-.1 4-.1h5.9c1.5 0 3 .1 4.5.2 1.6.1 3.2.2 4.8.5 1 .1 2.1.4 3 .7 1.2.5 2.2 1.2 2.8 2.3.4.6.7 1.3.8 2 .2.7.3 1.4.3 2.2.2 2.2.2 4.3.2 6.5 0 1.3-.1 2.6-.2 3.9-.1 1-.2 2.1-.3 3.1-.2 1.7-.5 3.4-1 5-.2.6-.4 1.1-.7 1.6-.7 1.3-1.7 2.2-3.1 2.8-.9.3-1.7.5-2.6.7-1.6.2-3.1.4-4.7.5-2.2.1-4.3.2-6.5.2H37c-1.9 0-3.7-.1-5.6-.1-1.4-.1-2.7-.2-4.1-.3-1.1-.1-2.2-.2-3.3-.5-.5-.1-1.1-.3-1.6-.5-1.4-.6-2.3-1.6-3-2.9-.4-.9-.7-1.8-1-2.7-.3-1.3-.5-2.6-.7-3.9-.2-1.5-.3-2.9-.4-4.4-.1-1.8-.1-3.5-.1-5.3z"/><path class="svg-path" d="M23.9 12.7c.1.8.1 1.6.2 2.3.1 1.3.2 2.5.2 3.8.1 1 .1 2.1.2 3.1l.3 3.6c.1 1 .1 1.9.2 2.9l.3 3.9c.1 1.1.2 2.1.2 3.2.1 1.2.2 2.5.3 3.7v.3c.8.2 3.7.3 4.4.3 0-.1.1-.2.1-.3.4-1.4.7-2.7 1.1-4.1.2-.7.5-1.5.9-2.1.4-.9 1.2-1.3 2.1-1.5.8-.1 1.7-.2 2.5-.2.9 0 1.7.1 2.6.2.9.2 1.6.6 2 1.4.1.2.2.4.3.5.3.7.5 1.4.7 2.1.3 1.2.7 2.4 1 3.6 0 .1.1.2.1.3.9 0 4-.2 4.4-.3.8-9.6 1.4-19.2 2-28.9-1-.1-2-.2-3-.2 0 .1 0 .1-.1.2l-1.2 5.4c-.6 2.7-1.3 5.3-2 7.9-.2.9-.5 1.7-.9 2.5-.8 1.5-2 2.4-3.7 2.6-.6.1-1.3.1-1.9.1-.9 0-1.9 0-2.8-.2-1.2-.2-2.1-.7-2.9-1.7-.4-.5-.6-1-.8-1.5-.4-.9-.6-1.9-.9-2.9-1-3.8-1.9-7.7-2.7-11.6-.1 0-.1-.3-.2-.6-1 0-2 .1-3 .2v2z"/></svg>