<svg xmlns="http://www.w3.org/2000/svg" width="74" height="50" viewBox="0 0 74 50"><path d="M8.5 20.3c-1.5 2.3-2 4.8-1.2 7.4.7 2.1 2 3.8 3.7 5.3 2.2 1.9 4.7 3.3 7.4 4.4 5.2 2.1 10.7 3 16.2 3.2 2.7.1 5.4 0 8.1-.3 2.8-.3 5.6-.8 8.2-1.6 3.5-1 6.9-2.3 9.9-4.4 1.9-1.3 3.5-2.8 4.7-4.8 1.1-1.9 1.6-4 1.1-6.3-.4-1.9-1.3-3.4-2.6-4.8-1.9-2.1-4.2-3.5-6.7-4.7-3-1.4-6.1-2.4-9.3-3-2.2-.5-4.5-.8-6.8-.9-.5 0-1-.1-1.5-.1h-5c-.1 0-.2.1-.3.1-.9.1-1.7.1-2.6.2-2.7.3-5.4.7-8 1.4-3.3.6-6.8 1.9-9.9 3.9-2.1 1.3-4 2.8-5.4 5zm34.8 10.6c-.4 2.5-1.6 4.6-3.5 6.3-.7.6-1.6.9-2.4.9-.6.1-1.3.1-1.6.1-2.3 0-4.3-.3-6.4-.5-2.1-.3-4.2-.7-6.3-1.2-.7-.2-1.4-.4-2.1-.7-.6-.2-.6-.6-.1-1 4.4-3.6 9.5-5.9 14.9-7.2 1.4-.3 2.9-.6 4.4-.5 1.1.1 2.1.4 2.7 1.5.5.7.6 1.5.4 2.3zm14-11.6c.2-.5.5-1 .7-1.4.3-.6.6-.8 1.2-.4 2.9 1.4 4.6 3.7 5.1 6.9v.7c0 1.6-.6 3-1.5 4.3-1.3 1.7-3 3-4.8 4-3.2 1.8-6.6 2.9-10.1 3.6-.2 0-.4 0-.5-.1-.1-.2 0-.4.1-.6.5-.7.9-1.3 1.4-2 1.7-2.3 3.2-4.8 4.6-7.4 1.3-2.5 2.5-5.1 3.8-7.6zm-23.9-5.9c1.1-1.2 2.5-1.7 4-1.7 4-.1 7.8.4 11.7 1.3 1 .3 2.1.6 3.1.9.3.1.6.3.9.5.4.3.4.6.1.9-.2.2-.4.4-.7.6-4 2.5-8.3 4.6-12.7 6.1-1.7.6-3.4 1-5.2 1.1-.8 0-1.5-.1-2.3-.4-1.2-.5-1.5-1.5-1.5-3 .2-2.1.9-4.4 2.6-6.3zm-8.6-.1c.6-.2 1.2-.2 1.9-.2.5 0 .7.3.3.7-.9 1.2-1.8 2.3-2.6 3.5-3.1 4.3-5.8 8.7-7.5 13.7-.2.5-.4.9-.6 1.3-.3.6-.7.7-1.4.5-.8-.3-1.4-.8-1.9-1.3-1.3-1.2-2.4-2.6-3-4.3-.2-.7-.3-1.4-.5-2.1h.1c0-1.7.8-3.2 1.8-4.5 1.2-1.5 2.8-2.7 4.5-3.6 2.7-1.8 5.8-2.9 8.9-3.7z" fill="#595b60"/></svg>