<svg version="1.1" id="Layer_1" xmlns="http://www.w3.org/2000/svg" x="0" y="0" width="74" height="50" viewBox="0 0 74 50" xml:space="preserve"><path class="svg-path" d="M37 43c20.1 0 36.5-8.1 36.5-18S57.1 7 37 7 .5 15.1.5 25 16.9 43 37 43zm0-31.7c18.5 0 33.6 6.1 33.6 13.7S55.5 38.7 37 38.7 3.4 32.6 3.4 25 18.5 11.3 37 11.3z"/><path class="svg-path" d="M49.9 33.5l3.6-11.9L57 33.5h4.9l-5-17.1h-7.6v.8h.8L45 33.5zm-35 0h4.9V26l5.5 7.1H31l-6.5-8.4 5.7-8h-5.7l-4.6 6.5v-6.4h-5.8v.7c.3 0 .6 0 .9.1v15.9h-.1zm20.3 0h4.9V16.8h-5.8v.7c.3 0 .6 0 .9.1v15.9z"/></svg>