<svg version="1.1" id="Layer_1" xmlns="http://www.w3.org/2000/svg" x="0" y="0" width="74" height="50" viewBox="0 0 74 50" xml:space="preserve"><path class="svg-path" d="M73.2 25c0-8-16.2-14.5-36.2-14.5S.8 17 .8 25 17 39.5 37 39.5 73.2 33 73.2 25zM37 38.2C19.1 38.2 4.4 32.3 4.4 25c0-6.8 12.6-12.4 28.8-13.2.1 0 .1.1.1.1l-3 16.2c0 .1 0 .1.1.2h.1c.7-.5 1.3-1.1 1.9-1.6 3-3 4.6-6.6 4.5-9.2v-.2c0-1.4-.9-2.7-2.1-3.3l-.1-.1.4-1.9c0-.1.1-.1.1-.1h1.7c17.9 0 32.6 5.9 32.6 13.2 0 7.2-14.6 13.1-32.5 13.1z"/><path class="svg-path" d="M44.8 14c-.1 0-.1 0 0 0 1.5 3.6.3 8.1-3 11.6 0 .1 0 .2.1.2 1.1.1 2.1.2 3.2.4 0 0 .1 0 .1.1l.2 1c0 .1-.1.1-.1.1-1.1-.3-1.9-.2-2 .2-.1.4.5 1 1.4 1.4 1.1.6 1.6 1.4 1.6 2.1 0 2-4.1 3.6-9.1 3.6-4.1 0-7.8-.4-11.1-1.2-.1 0-.1-.1-.1-.1l.2-1.3c0-.1.1-.1.1-.1 1.6.6 3.7.9 6 .9 2.7 0 5.1-.5 6.8-1.3 1.4-.7 2.3-1.4 2.3-2.4 0-.7-.5-1.4-1.3-1.8H40c-.6.5-1.3.9-2 1.4-2.4 1.4-5 2.1-7.4 2.3h-.1c-1 0-1.8-.9-1.8-1.8V29l2.7-15c0-.1-.1-.2-.1-.2-12.7 1.2-22 5.7-22 11.2 0 6.4 12.4 11.5 27.7 11.5 15.3 0 27.8-5.1 27.8-11.5-.1-5.2-8.5-9.6-20-11z"/></svg>