<svg xmlns="http://www.w3.org/2000/svg" width="74" height="50" viewBox="0 0 74 50"><path d="M55 13c-4.5-4.9-11.9-6-18-6-6.3 0-13.9 1.1-18.3 6.2-.1.1-.1.2-.2.3C16.3 16.2 15 19.9 15 25c0 15.5 12.5 18 22 18 9.6 0 22-2.5 22-18 0-5-1.3-8.8-3.5-11.4-.2-.3-.3-.4-.5-.6zm-32.3 3c2.9-4.6 8.6-5.8 14.3-5.8 5.8 0 11.2 1.1 14.2 5.6.1.1.1.2.2.3-5.1 3-10.9 3.1-14.4 10.8-3.8-7.4-9.6-7.5-14.6-10.4 0-.1.1-.3.3-.5zM37 39.7c-8.5.1-16.5-2.4-16.5-14.7 0-.9 0-1.8.1-2.6 0-.2.1-.3.1-.5 2.9 1 5.7 2 8.6 2.9 3.4 1.4 5.6 3.4 7.6 7.9 2-4.5 4.2-6.7 7.7-8.2 2.9-1 5.8-2.1 8.6-3.1 0 .1 0 .1.1.2.1 1 .2 2.2.2 3.4 0 12.3-8 14.8-16.5 14.7z" fill="#595b60"/></svg>