<svg version="1.1" id="Layer_1" xmlns="http://www.w3.org/2000/svg" x="0" y="0" width="74" height="50" viewBox="0 0 74 50" xml:space="preserve"><path class="svg-path" d="M37.2 4.6h-.5l-3.2 18.1 3.5 2 3.5-1.9zm17.7 31.3l.1-.2.1-.2-13.9-11.8-3.7 1.9v4zm-35.8.2l-.1-.2-.1-.2 14.1-12 3.4 1.9v4z"/><path d="M37 5.6c-10.7 0-19.4 8.7-19.4 19.4S26.3 44.4 37 44.4 56.4 35.7 56.4 25 47.7 5.6 37 5.6z" fill="none"/><path class="svg-path" d="M37 2.5C24.6 2.5 14.5 12.6 14.5 25S24.6 47.5 37 47.5 59.5 37.4 59.5 25 49.4 2.5 37 2.5zm0 41.9c-10.7 0-19.4-8.7-19.4-19.4S26.3 5.6 37 5.6 56.4 14.3 56.4 25 47.7 44.4 37 44.4z"/></svg>