<svg xmlns="http://www.w3.org/2000/svg" width="74" height="50" viewBox="0 0 74 50"><path d="M37 42c16 0 29-7.6 29-17S53 8 37 8 8 15.6 8 25s13 17 29 17zm0-8.4c-1.6 0-3.4-3.5-3.4-8.7 1.1.1 2.3.1 3.4.1 1.2 0 2.3 0 3.5-.1-.1 5.2-1.9 8.7-3.5 8.7zm0-13.3c-1 0-2 0-3-.1.6-2.7 1.8-4.5 3-4.5s2.4 1.7 3 4.5c-1 0-2 .1-3 .1zm19.5-2.2c2.5 2.1 3.8 4.6 3.8 7.2 0 6.4-8.2 11.8-19.3 12.9 2.3-2.6 3.7-7.4 3.7-13v-.7c6.3-1.2 10.7-3.6 11.8-6.4zm-5-2.4c.1.1.1.3.1.4 0 .2-.1.5-.2.7-.8 1.2-3.4 2.3-7 2.9-.6-3.3-1.9-6-3.4-7.7 5.5.5 9.8 2 10.5 3.7zm-29 0c.6-1.7 5-3.2 10.6-3.7-1.6 1.7-2.8 4.4-3.4 7.7-3.6-.6-6.2-1.7-7-2.9-.1-.2-.2-.5-.2-.7v-.4zm-5 2.4c1.2 2.8 5.5 5.2 11.7 6.3v.7c0 5.6 1.4 10.4 3.7 13-11.1-1.1-19.3-6.5-19.3-12.9 0-2.5 1.4-5 3.9-7.1z" fill="#595b60"/></svg>