<svg version="1.1" id="Capa_1" xmlns="http://www.w3.org/2000/svg" x="0" y="0" width="19" height="19" viewBox="0 0 19.3 19.3" xml:space="preserve"><path d="M14.3 0H5C2.2 0 0 2.2 0 5v9.4c0 2.7 2.2 5 5 5h9.4c2.7 0 5-2.2 5-5V5c-.1-2.8-2.3-5-5.1-5zm2.9 14.3c0 1.6-1.3 2.9-2.9 2.9H5c-1.6 0-2.9-1.3-2.9-2.9V5c0-1.6 1.3-2.9 2.9-2.9h9.4c1.6 0 2.9 1.3 2.9 2.9v9.3z"/><path d="M9.6 4.7c-2.7 0-4.9 2.2-4.9 4.9s2.2 4.9 4.9 4.9 4.9-2.2 4.9-4.9-2.1-4.9-4.9-4.9zm0 7.8c-1.6 0-2.9-1.3-2.9-2.9C6.7 8 8 6.7 9.6 6.7s2.9 1.3 2.9 2.9c0 1.6-1.3 2.9-2.9 2.9z"/><circle cx="14.8" cy="4.2" r="1.2"/></svg>