<svg version="1.1" id="Capa_1" xmlns="http://www.w3.org/2000/svg" x="0" y="0" width="11" height="19" viewBox="0 0 11 19" xml:space="preserve"><path d="M4.6 13.4c-1.4-.2-2.7-.5-3.8-1.4-.1-.1-.3-.2-.4-.3-.5-.5-.5-1-.1-1.6.3-.5.9-.6 1.4-.3.1 0 .2 0 .3.1 2 1.5 4.8 1.5 6.9.1.2-.2.4-.3.7-.4.5-.1.9.1 1.2.5.3.5.3 1-.1 1.4-.6.6-1.2 1-2 1.3-.7.3-1.5.4-2.3.5.1.1.2.2.2.3 1.1 1.1 2.1 2.2 3.2 3.3.4.4.4.8.2 1.3-.1.5-.6.8-1.1.8-.3 0-.5-.2-.7-.4-.8-.8-1.6-1.6-2.4-2.5-.2-.2-.3-.2-.5 0-.8.9-1.6 1.7-2.4 2.5-.5.4-.9.5-1.3.3-.5-.2-.7-.7-.7-1.2 0-.3.2-.6.4-.8 1-1.1 2.1-2.2 3.1-3.2 0-.1.1-.2.2-.3z"/><path d="M5.5 9.6C3 9.6.9 7.4.9 4.8.9 2.1 3 0 5.5 0c2.6 0 4.6 2.2 4.6 4.9 0 2.6-2.1 4.7-4.6 4.7zm2.3-4.8c0-1.3-1-2.3-2.3-2.3-1.3 0-2.3 1.1-2.3 2.4 0 1.3 1 2.3 2.3 2.3 1.3 0 2.3-1.1 2.3-2.4z"/></svg>