<svg xmlns="http://www.w3.org/2000/svg" width="20" height="11" viewBox="0 0 19.4 11"><path d="M9.5 11h1.2s.3 0 .5-.2.2-.5.2-.5 0-1.6.7-1.8c.7-.2 1.6 1.5 2.6 2.2.7.5 1.3.4 1.3.4h2.6s1.4-.1.7-1.1c-.1-.1-.4-.8-1.9-2.2-1.6-1.5-1.4-1.3.5-3.9 1.2-1.6 1.7-2.6 1.5-3-.1-.4-1-.3-1-.3h-2.9s-.2 0-.4.1-.3.3-.3.3-.5 1.2-1.1 2.3c-1.3 2.2-1.8 2.3-2 2.2-.5-.3-.4-1.3-.4-2 0-2.1.3-3-.6-3.3-.3-.1-.6-.2-1.4-.2-1 0-1.9 0-2.4.2-.3.2-.6.6-.4.6.2 0 .6.1.9.4.3.4.3 1.3.3 1.3s.2 2.5-.4 2.8c-.5.3-1-.2-2.2-2.2-.6-1-1-2.2-1-2.2S4 .8 3.8.7C3.7.5 3.4.5 3.4.5H.6S.2.5 0 .7c-.1.2 0 .5 0 .5s2.2 5.1 4.6 7.6C6.9 11.2 9.5 11 9.5 11z" fill="#f7ce40"/></svg>