<svg xmlns="http://www.w3.org/2000/svg" width="27" height="19" viewBox="0 0 27 19"><path d="M26.7 4.7c-.8-1-2.1-.8-2.1-.8h-.1c-.2.1-.6.5-.5.9V5l-.1.1c-.3-.6-2.2-4-2.4-4.3-.2-.3-.3-.3-.3-.3h-.1S16.7 0 14.2 0h-1.5c-2.5 0-6.9.5-6.9.5h-.1l-.3.3c-.2.3-2.1 3.8-2.3 4.3L3 5v-.1c.1-.5-.3-.8-.5-.9h-.1C2.3 4 1 3.8.3 4.8c-.3.2-.4.5-.3.8.2.4.7.6.7.6h1.8L1 9.1s-.1 3.7-.1 5.4c.1 1 .4 1.6 1 1.7v2c0 .4.5.8.9.8h2c.5 0 .8-.3.8-.8v-1.5h15.7v1.5c0 .4.4.8.8.8h2c.4 0 .9-.3.9-.8v-2c.6-.1.9-.7 1-1.7 0-1.7-.1-5.3-.1-5.4l-1.6-2.9h1.8c.1 0 .6-.1.8-.5.1-.2.2-.6-.2-1zm-5.1 4.9c.8 0 1.4.7 1.4 1.5s-.6 1.5-1.4 1.5c-.8 0-1.4-.7-1.4-1.5s.7-1.5 1.4-1.5zM6.8 11.1c0 .8-.6 1.5-1.4 1.5-.8 0-1.4-.7-1.4-1.5s.6-1.5 1.4-1.5c.8 0 1.4.7 1.4 1.5zM4.4 5.2s-.1 0-.2-.1v-.2c.3-.5 1.5-3.1 1.5-3.2 0 0 .2-.3.5-.3h14.3c.3 0 .5.2.5.2.1.1 1.3 2.7 1.5 3.2 0 .1.1.1 0 .2 0 0-.1.1-.2.1L13.1 5c-7.1.1-8.4.2-8.7.2zm14.4 8.9c0 .4-.3.6-.7.6H9c-.4 0-.7-.3-.7-.6 0-.2.1-.3.2-.4.1-.1.3-.1.5-.1h9.1c.2 0 .4 0 .5.1.1.2.2.3.2.4z" fill="#f7ce40"/></svg>